<svg width="1016" height="527" viewBox="0 0 1016 527" fill="none" xmlns="http://www.w3.org/2000/svg">
<path d="M149.058 225.809H149.439C149.439 227.565 149.312 228.443 149.058 228.443C149.185 228.612 149.312 229.067 149.439 229.808C149.312 231.098 149.249 231.818 149.249 231.966L154.961 272.845C155.215 272.845 155.903 270.38 157.024 265.45L164.832 244.153H165.022V244.312C165.022 244.502 164.896 245.116 164.642 246.153V246.47H164.832C164.832 246.237 165.022 245.518 165.403 244.312H165.784V244.788C165.784 244.894 165.721 244.947 165.594 244.947C165.721 245.074 165.784 245.433 165.784 246.026H165.975L166.927 242.916H167.308V243.233H167.498C167.688 242.514 170.291 237.319 175.306 227.649H175.496V227.808C175.496 228.02 175.306 228.538 174.925 229.363V229.522H175.115C175.115 229.395 175.306 228.93 175.687 228.125H176.067V228.887L170.735 249.866C168.323 263.746 166.292 274.083 164.642 280.875L160.452 293.189C160.96 295.411 161.214 296.807 161.214 297.378H160.833C160.833 297.294 160.77 296.976 160.643 296.426H160.452V296.585L160.643 297.505V297.823C160.431 297.802 159.796 297.082 158.738 295.665C158.738 295.982 158.421 296.141 157.786 296.141L157.977 296.426V296.744H157.596V296.426H157.405V296.585L158.548 300.14H158.167L157.786 299.219H157.596V299.378C157.723 299.547 157.786 299.748 157.786 299.981H157.405C154.887 296.701 151.851 289.814 148.296 279.319C147.281 275.701 145.313 267.841 142.393 255.738C142.055 255.738 141.42 257.536 140.489 261.133C140.489 262.911 138.278 269.438 133.855 280.716C133.348 281.224 132.776 281.478 132.142 281.478C132.142 281.245 131.888 280.991 131.38 280.716V278.843H131.189C130.724 280.494 129.962 281.319 128.904 281.319C128.904 281.425 128.841 281.478 128.714 281.478C127.825 281.139 127.381 280.113 127.381 278.399C127.296 278.399 127.169 278.24 127 277.923C127 274.41 131.369 261.927 140.108 240.472C140.108 239.118 140.489 238.44 141.25 238.44C141.864 237.785 142.943 235.986 144.488 233.045C144.234 232.008 144.107 230.368 144.107 228.125V227.491C144.911 226.771 145.419 226.412 145.63 226.412C146.307 226.412 146.942 226.623 147.535 227.046H147.916L148.296 225.967H148.677C148.677 226.158 148.487 226.623 148.106 227.364V227.491H148.296C148.804 226.56 149.058 225.999 149.058 225.809ZM167.117 242.312H167.498V242.63H167.117V242.312ZM194.928 239.773H196.737C199.635 239.773 202.312 241.762 204.766 245.74C205.338 246.206 206.057 247.771 206.925 250.438C207.792 251.115 208.607 253.019 209.368 256.15H209.527L209.368 256.404C209.368 256.489 209.421 256.531 209.527 256.531L209.368 256.785V258.309C209.368 259.684 209.263 261.377 209.051 263.387L210.035 266.688C210.035 269.84 207.845 274.284 203.465 280.018L199.688 283.191L199.371 283.064C194.737 285.604 191.775 286.873 190.484 286.873V286.619L191.309 286.492V286.365H191.151C189.268 286.788 187.458 287 185.723 287C180.201 287 175.61 283.911 171.949 277.732H171.79V278.875H171.441C171.441 278.663 171.335 278.071 171.124 277.098H170.965V278.621H170.648C169.653 277.203 169.156 274.114 169.156 269.354V268.973C169.156 263.937 170.796 257.97 174.075 251.072C176.995 246.438 180.719 243.476 185.247 242.186C190.304 240.577 193.531 239.773 194.928 239.773ZM179.534 271.67H179.217V271.543C179.132 270.866 179.09 270.443 179.09 270.274H178.931V271.67C178.931 271.945 179.281 272.559 179.979 273.511C179.979 274.273 181.068 275.352 183.248 276.749C184.242 276.897 185.142 276.971 185.946 276.971H186.073C190.431 276.971 194.314 275.352 197.721 272.115C199.709 269.978 200.704 266.751 200.704 262.435V260.816C200.704 260.562 200.757 260.372 200.863 260.245L200.704 259.546V256.785C199.9 254.606 198.704 253.146 197.117 252.405C195.361 251.707 193.922 251.358 192.801 251.358C191.003 251.358 188.072 252.469 184.01 254.69C182.719 255.262 182.074 256.531 182.074 258.499C180.381 265.735 179.534 270.126 179.534 271.67ZM209.718 256.531H210.035V256.785H209.718V256.531ZM170.965 276.717V276.971H171.124V276.717H170.965ZM251.786 231.553C251.786 231.722 252.262 231.987 253.214 232.347L253.69 233.013C254.812 232.907 255.447 232.854 255.595 232.854C257.287 232.854 263.402 233.225 273.939 233.965V234.283H272.257V234.441H274.162V234.759C273.696 234.759 273.463 234.875 273.463 235.108C275.6 235.319 277.896 235.425 280.35 235.425H282.985C283.387 235.425 285.365 234.939 288.92 233.965C288.92 234.283 288.602 234.441 287.968 234.441V234.6H288.222C288.729 234.389 289.205 234.283 289.65 234.283L287.968 235.743H288.444C289.946 235.087 290.983 234.759 291.554 234.759L291.078 235.267H291.776C291.776 235.774 286.307 239.477 275.368 246.375L253.69 258.118C267.02 278.177 273.685 288.428 273.685 288.873L279.874 299.505C278.986 298.934 278.51 298.394 278.446 297.886H278.224V298.045C278.859 298.955 279.176 299.547 279.176 299.822C277.78 299.145 274.997 296.352 270.829 291.443C268.565 289.137 266.893 287.37 265.814 286.143H265.592V286.302C266.058 286.831 266.29 287.254 266.29 287.571H266.068C264.82 286.788 261.085 283.308 254.865 277.129C250.866 273.363 247.448 269.491 244.613 265.513H244.391C244.391 266.275 241.852 274.601 236.774 290.491C236.605 291.422 236.52 291.951 236.52 292.078H236.044V291.761H235.822V292.078C235.018 292.078 234.616 291.761 234.616 291.126H234.393V291.602H234.14C233.78 291.602 233.547 291.232 233.441 290.491C233.441 289.306 233.833 284.958 234.616 277.447V276.971H234.393C234.393 277.203 233.283 280.208 231.061 285.984H230.585L231.061 284.048V283.89H230.807C230.807 284.08 230.648 284.673 230.331 285.667H229.855V284.683C229.855 284.45 229.781 284.239 229.633 284.048C231.368 272.094 233.822 258.351 236.996 242.82C236.996 242.397 236.922 242.186 236.774 242.186C235.885 242.186 235.166 241.858 234.616 241.202C234.785 241.032 234.87 240.821 234.87 240.567C232.182 240.567 230.193 239.382 228.903 237.012V236.377C228.903 235.658 229.379 235.013 230.331 234.441L230.807 234.6C230.807 234.219 231.844 234.008 233.917 233.965C235.927 234.071 237.038 234.177 237.25 234.283C237.525 234.177 237.842 234.124 238.202 234.124V234.283C239.831 233.775 243.322 233.352 248.676 233.013C248.993 232.251 249.31 231.871 249.628 231.871H249.85L250.58 232.188C250.58 231.765 250.982 231.553 251.786 231.553ZM255.595 242.186H252.008C251.606 242.186 250.569 244.979 248.898 250.564C252.579 249.147 258.536 246.195 266.767 241.709C263.847 242.027 260.123 242.186 255.595 242.186ZM300.099 239.012C301.305 239.033 302.554 239.361 303.844 239.996C309.282 239.509 313.874 239.223 317.619 239.139C323.438 239.371 328.251 239.488 332.06 239.488L332.092 239.742L330.06 239.869V239.996H332.377C332.017 240.376 330.579 240.821 328.061 241.329C326.622 241.836 324.897 242.249 322.887 242.566L322.919 242.693L329.838 243.042L329.902 243.296H328.219C327.987 243.318 327.87 243.392 327.87 243.519V243.55H329.933L329.997 243.804C328.135 244.375 322.549 245.232 313.239 246.375C310.636 246.438 308.425 246.47 306.606 246.47L306.193 246.597C305.939 246.513 305.654 246.47 305.336 246.47H303.464C303.189 246.618 302.776 247.317 302.226 248.565C302.247 248.671 302.744 249.083 303.717 249.803C303.464 249.887 303.263 249.93 303.114 249.93L303.146 250.025L303.876 250.533C302.162 255.611 301.305 258.298 301.305 258.594V258.626L304.384 258.372L304.416 258.499C305.072 258.33 306.299 258.245 308.097 258.245H309.145C309.949 258.245 313.493 258.615 319.777 259.356H319.967L320.031 259.61C319.925 259.61 319.513 259.642 318.793 259.705L318.825 259.832H320.285L320.317 260.086C317.312 260.7 315.344 261.271 314.413 261.8C312.826 262.054 311.091 262.382 309.208 262.784L309.24 262.911H309.653L309.684 263.038C305.368 265.069 301.887 266.084 299.242 266.084C298.248 271.543 296.714 276.368 294.64 280.557L294.672 280.779C296.873 280.547 298.936 280.43 300.861 280.43C308.415 280.578 312.869 280.652 314.223 280.652H316.095L316.159 280.906C315.968 280.906 315.281 280.949 314.096 281.033L314.128 281.16H315.778L315.81 281.287V281.319C315.81 281.446 315.619 281.509 315.238 281.509V281.636L316.54 281.763L316.571 282.017H316.349C316.18 282.017 315.503 282.059 314.318 282.144V282.271C316.37 282.271 318.328 282.313 320.19 282.398L320.221 282.62C319.036 282.705 318.359 282.747 318.19 282.747V282.874H320.285L320.317 283.128C318.433 283.593 314.826 284.239 309.494 285.064C309.219 285.297 306.098 286.037 300.131 287.286C298.586 288.026 293.604 288.799 285.182 289.603C284.019 289.603 283.437 289.793 283.437 290.174V290.237C283.31 290.555 283.14 290.713 282.929 290.713H282.707L282.58 290.11H282.389L282.294 290.713H281.882C281.331 290.036 281.035 289.592 280.993 289.38L280.802 288.523L280.326 288.143L280.295 288.016L280.453 287.762C279.395 287.762 278.411 287.36 277.502 286.556C277.311 286.556 277.078 286.429 276.803 286.175L276.772 285.921V285.794C276.772 285.35 277.322 284.704 278.422 283.858C279.036 282.99 279.893 282.419 280.993 282.144C282.411 277.32 283.754 271.85 285.024 265.735C287.542 258.859 290.356 252.077 293.466 245.391H293.276C292.408 245.222 291.953 245.053 291.911 244.883L292.006 244.28C291.456 244.28 291.149 244.153 291.086 243.899V243.772C291.086 243.434 291.276 243.032 291.657 242.566C291.488 242.418 291.392 242.26 291.371 242.09H291.974L291.72 241.836L291.689 241.583C292.683 240.609 294.661 240.123 297.624 240.123C298.005 239.467 298.639 239.139 299.528 239.139C299.528 239.223 299.602 239.266 299.75 239.266C299.75 239.096 299.867 239.012 300.099 239.012ZM290.356 279.922V279.986C290.356 280.24 290.155 280.631 289.753 281.16H290.387C290.641 281.16 290.768 281.086 290.768 280.938V280.906L290.546 279.922H290.356ZM363.583 240.186V240.535L361.997 241.011V241.202H362.473C362.896 240.969 363.266 240.853 363.583 240.853V241.202C362.822 241.9 360.505 243.571 356.633 246.216L354.57 248.057C354.676 248.057 354.729 248.11 354.729 248.216C354.136 248.554 353.723 248.724 353.491 248.724V248.882H353.649C354.221 248.777 354.633 248.724 354.887 248.724C353.66 250.141 350.402 252.871 345.112 256.912C343.588 257.843 342.16 258.848 340.827 259.927C342.689 259.948 347.27 261.345 354.57 264.117C357.109 265.005 358.378 265.905 358.378 266.814C358.484 266.814 358.59 266.973 358.696 267.291C358.59 267.523 358.537 267.693 358.537 267.798C358.749 267.841 358.854 267.957 358.854 268.147V268.306C358.854 268.391 358.696 268.56 358.378 268.814C358.59 269.174 358.696 269.502 358.696 269.798L358.061 270.147L358.22 270.496V270.655C356.019 273.363 352.962 276.04 349.047 278.685C345.302 281.308 340.827 283.879 335.622 286.397C334.67 287.222 332.247 288.608 328.354 290.555C323.699 293.348 321.118 294.744 320.61 294.744C320.61 294.511 321.139 294.12 322.197 293.57V293.411H322.038C321.255 293.792 320.673 294.131 320.292 294.427H320.134V294.236C320.134 293.771 322.08 291.771 325.974 288.238H325.815C323.784 289.126 322.578 289.571 322.197 289.571C322.218 289.296 322.8 288.904 323.942 288.396V288.238H323.784C322.937 288.682 322.355 288.904 322.038 288.904H321.879C322.747 287.719 325.275 285.371 329.465 281.858C330.988 280.208 334.776 276.749 340.827 271.48L343.525 268.465V268.306H343.366C338.881 267.417 336.088 266.973 334.987 266.973C333.506 267.079 332.089 267.132 330.734 267.132C327.73 267.132 325.931 266.571 325.339 265.45C325.106 265.45 324.641 265.122 323.942 264.466C323.942 264.677 323.837 264.783 323.625 264.783C323.413 264.508 323.308 264.286 323.308 264.117H323.149V264.275C323.255 264.487 323.308 264.72 323.308 264.974H323.149C322.091 264.318 321.562 263.418 321.562 262.276C321.562 257.621 325.138 253.326 332.29 249.39C341.113 244.249 346.963 241.678 349.841 241.678H350.317C350.952 241.678 352.168 241.794 353.967 242.027C356.95 241.583 360.156 240.969 363.583 240.186ZM395.361 238.536H395.742C395.911 238.536 396.133 238.737 396.408 239.139L396.758 238.98C397.308 238.98 397.837 239.879 398.345 241.678C393.647 256.32 391.14 265.979 390.823 270.655C389.765 276.241 388.717 280.102 387.68 282.239C387.3 282.832 386.644 284.683 385.713 287.793H385.364L385.459 286.429H385.268L385.046 287.19L384.983 287.793H384.634L384.189 286.429H384.031C383.565 287.825 383.29 289.179 383.205 290.491H382.856C382.793 290.026 382.761 289.603 382.761 289.222C382.761 289.031 382.772 288.851 382.793 288.682H382.602C382.602 288.894 382.539 289 382.412 289C382.412 289.084 382.465 289.126 382.571 289.126L382.348 289.888C382.454 290.079 382.507 290.227 382.507 290.333H382.158C381.481 289.55 381.142 287.931 381.142 285.477C381.142 284.715 381.174 283.879 381.238 282.969H381.047L381.015 283.572H380.666L380.73 282.398H380.571L380.285 283.89H379.936C379.64 282.959 379.481 281.858 379.46 280.589C375.355 284.397 371.896 286.302 369.082 286.302H368.891C363.686 286.302 360.872 282.44 360.449 274.717L360.608 272.464V272.369C360.608 272.178 360.565 272.009 360.481 271.861L360.671 271.575L360.544 270.813C360.692 270.623 360.766 270.475 360.766 270.369C360.766 270.263 360.714 270.21 360.608 270.21L361.147 267.227L360.989 266.91C362.449 259.885 364.078 253.685 365.876 248.311C367.23 244.502 368.193 242.598 368.764 242.598H369.114C369.219 242.598 369.272 242.64 369.272 242.725C369.971 242.598 370.521 242.45 370.923 242.281C371.134 242.387 371.304 242.439 371.43 242.439L372.351 241.995C372.372 242.186 372.488 242.281 372.7 242.281C372.933 242.196 373.113 242.154 373.24 242.154C373.24 242.429 373.991 242.725 375.493 243.042L375.429 243.804C375.62 243.804 375.842 244.005 376.096 244.407L376.064 244.979L375.874 245.296C376.085 245.317 376.191 245.402 376.191 245.55V245.582C376.022 245.582 375.832 245.74 375.62 246.058L375.588 246.502C373.536 255.643 372.446 261.144 372.319 263.006L372.16 264.974C372.139 265.799 372.129 266.571 372.129 267.291C372.129 271.395 372.637 273.776 373.652 274.432C377.757 271.554 379.831 269.798 379.873 269.163L379.905 268.877C380.391 264.667 380.772 262.562 381.047 262.562V262.53C381.047 262.445 380.994 262.403 380.888 262.403C381.735 259.271 382.211 257.621 382.317 257.452C382.317 257.346 382.253 257.293 382.126 257.293C384.898 247.094 386.792 241.339 387.807 240.027H388.506L389.013 240.345H389.363C389.405 239.837 389.659 239.583 390.124 239.583C390.696 239.583 391.383 239.985 392.187 240.789C392.23 240.26 392.632 239.604 393.393 238.821H393.584L394.25 239.297H394.79C394.853 238.79 395.044 238.536 395.361 238.536ZM367.273 276.526L367.241 276.971L367.368 277.732H367.558C367.58 277.436 367.643 277.288 367.749 277.288C367.558 276.971 367.463 276.738 367.463 276.59V276.526H367.273ZM368.13 279.668L368.098 279.827C368.119 280.039 368.235 280.145 368.447 280.145L368.479 279.668H368.13ZM368.606 280.271V280.43C368.669 280.726 369.061 280.98 369.78 281.192L369.812 280.875L368.606 280.271ZM414.38 232.029H414.507L414.951 232.315L415.618 232.22L415.586 232.315L415.872 232.22H416.126C416.739 233.003 417.046 233.648 417.046 234.156C417.046 234.262 417.035 234.357 417.014 234.441C412.127 246.735 408.233 258.076 405.335 268.465L401.78 281.128C400.299 286.439 398.606 290.544 396.702 293.443H396.448L396.638 292.776H396.511L396.194 293.443H395.94C395.728 293.21 395.623 292.882 395.623 292.459C395.623 292.353 395.633 292.226 395.654 292.078L395.813 291.602H395.686L395.432 292.491H395.178L395.274 291.221H395.02C394.618 292.385 394.364 293.157 394.258 293.538H394.004L394.194 292.396H394.067L393.718 293.633H393.464L393.528 293.443H393.401L392.29 297.378H392.036C392.079 297.23 392.163 296.617 392.29 295.538H392.163L391.973 296.236C391.846 297.019 391.772 297.431 391.751 297.474H391.497C391.285 296.077 391.179 294.892 391.179 293.919C391.179 293.094 391.253 292.417 391.401 291.888C391.571 286.196 392.121 281.679 393.052 278.335L393.02 277.955H393.147L393.084 277.764L393.56 276.05C393.581 275.987 393.591 275.934 393.591 275.892C393.591 275.807 393.57 275.733 393.528 275.669L393.718 275.479C394.226 272.178 394.586 270.158 394.797 269.417L395.178 267.957C395.199 267.894 395.21 267.83 395.21 267.767C395.21 267.703 395.199 267.64 395.178 267.576C395.284 267.47 395.358 267.343 395.4 267.195L395.94 265.291C395.982 265.185 396.004 265.09 396.004 265.005C396.004 264.921 395.982 264.857 395.94 264.815L396.226 264.212L396.48 263.355C396.501 263.27 396.511 263.207 396.511 263.165C396.511 263.101 396.49 263.069 396.448 263.069L396.67 262.688C398.68 255.537 402.013 247.116 406.668 237.425L406.953 237.33H407.207L407.525 237.52H407.778C408.202 236.949 408.836 235.732 409.683 233.87C410.91 233.151 411.566 232.791 411.65 232.791H412.031L412.254 232.886L412.825 232.696C412.952 232.759 413.068 232.791 413.174 232.791C413.47 232.452 413.872 232.199 414.38 232.029ZM440.635 231.648C441.926 231.648 442.857 232.738 443.428 234.917C443.195 235.679 443.079 236.377 443.079 237.012C444.941 237.753 445.872 238.842 445.872 240.281V240.44C445.766 240.99 445.713 241.382 445.713 241.614L454.156 241.011V241.329L451.331 241.773V241.932H451.521L454.346 241.614V241.932C454.198 241.932 453.754 242.08 453.013 242.376V242.662C455.171 242.662 458.874 242.418 464.121 241.932V242.376H465.423V242.503C465.423 242.926 463.296 243.72 459.043 244.883C457.943 245.391 457.192 245.645 456.79 245.645V245.804H457.171C457.382 245.804 458.631 245.698 460.916 245.486V245.804L458.472 246.248V246.375H458.663L460.916 246.089V246.375C459.308 247.433 453.986 249.327 444.952 252.056C443.195 252.289 442.317 252.733 442.317 253.389C438.191 267.629 435.06 276.96 432.923 281.382C431.801 283.498 430.045 287.317 427.654 292.84H427.273C427.273 292.607 427.337 292.406 427.464 292.237V292.078H427.273L427.083 292.84H426.734L426.543 291.792V289.698C426.416 289.698 426.353 289.751 426.353 289.856C425.401 289.751 424.777 289.655 424.48 289.571C422.407 293.422 421.021 295.749 420.323 296.553V296.268C420.83 294.998 421.084 294.3 421.084 294.173V294.014H420.894C420.259 295.389 419.942 296.141 419.942 296.268H419.593V294.617C422.216 282.112 424.904 271.988 427.654 264.244C428.543 260.816 429.421 257.695 430.288 254.881C430.162 254.881 430.098 254.828 430.098 254.722L429.178 254.881H424.829C424.301 254.881 421.486 255.325 416.387 256.214H414.895C414.239 255.621 413.732 255.325 413.372 255.325V255.008L413.562 254.722L412.452 253.516C411.817 253.516 411.499 253.072 411.499 252.183H411.69C412.071 252.183 412.261 252.088 412.261 251.897L412.071 251.009C412.071 250.713 412.631 250.363 413.753 249.961C413.753 249.475 414.377 249.179 415.625 249.073C415.625 248.903 416.197 248.755 417.339 248.628C417.339 248.375 417.149 248.025 416.768 247.581C416.768 247.475 417.075 247.274 417.688 246.978L417.498 246.692C417.646 246.121 418.281 245.677 419.402 245.359C419.402 245.042 421.338 244.64 425.21 244.153C430.669 243.159 433.558 242.566 433.875 242.376C433.875 239.287 434.499 237.647 435.747 237.457C436.805 233.902 437.557 232.061 438.001 231.934C438.53 232.04 438.964 232.093 439.302 232.093C439.302 231.797 439.746 231.648 440.635 231.648ZM493.55 240.186V240.535L491.964 241.011V241.202H492.44C492.863 240.969 493.233 240.853 493.55 240.853V241.202C492.789 241.9 490.472 243.571 486.6 246.216L484.537 248.057C484.643 248.057 484.695 248.11 484.695 248.216C484.103 248.554 483.69 248.724 483.458 248.724V248.882H483.616C484.188 248.777 484.6 248.724 484.854 248.724C483.627 250.141 480.369 252.871 475.079 256.912C473.555 257.843 472.127 258.848 470.794 259.927C472.656 259.948 477.237 261.345 484.537 264.117C487.076 265.005 488.345 265.905 488.345 266.814C488.451 266.814 488.557 266.973 488.663 267.291C488.557 267.523 488.504 267.693 488.504 267.798C488.716 267.841 488.821 267.957 488.821 268.147V268.306C488.821 268.391 488.663 268.56 488.345 268.814C488.557 269.174 488.663 269.502 488.663 269.798L488.028 270.147L488.187 270.496V270.655C485.986 273.363 482.929 276.04 479.014 278.685C475.269 281.308 470.794 283.879 465.589 286.397C464.637 287.222 462.214 288.608 458.321 290.555C453.666 293.348 451.085 294.744 450.577 294.744C450.577 294.511 451.106 294.12 452.164 293.57V293.411H452.005C451.222 293.792 450.64 294.131 450.259 294.427H450.101V294.236C450.101 293.771 452.047 291.771 455.941 288.238H455.782C453.751 289.126 452.545 289.571 452.164 289.571C452.185 289.296 452.767 288.904 453.909 288.396V288.238H453.751C452.904 288.682 452.322 288.904 452.005 288.904H451.846C452.714 287.719 455.242 285.371 459.432 281.858C460.955 280.208 464.743 276.749 470.794 271.48L473.492 268.465V268.306H473.333C468.848 267.417 466.055 266.973 464.954 266.973C463.473 267.079 462.056 267.132 460.701 267.132C457.697 267.132 455.898 266.571 455.306 265.45C455.073 265.45 454.608 265.122 453.909 264.466C453.909 264.677 453.804 264.783 453.592 264.783C453.38 264.508 453.275 264.286 453.275 264.117H453.116V264.275C453.222 264.487 453.275 264.72 453.275 264.974H453.116C452.058 264.318 451.529 263.418 451.529 262.276C451.529 257.621 455.105 253.326 462.257 249.39C471.08 244.249 476.93 241.678 479.808 241.678H480.284C480.919 241.678 482.135 241.794 483.934 242.027C486.917 241.583 490.123 240.969 493.55 240.186ZM551.456 231.775H551.837C551.71 233.003 551.583 233.69 551.456 233.838V233.997H551.647C552.028 232.96 552.218 232.273 552.218 231.934H552.599C552.599 232.04 552.726 232.939 552.98 234.632C552.98 245.486 550.293 258.795 544.918 274.559C542.824 281.774 541.152 286.333 539.904 288.238C539.607 288.238 539.353 288.344 539.142 288.555L539.332 288.873V289.983H538.951C538.867 289.031 538.666 288.555 538.348 288.555V288.873L538.571 289.983H538.158C538.158 289.37 537.132 288.523 535.079 287.444V287.286H533.937C533.577 287.286 533.196 287.18 532.794 286.968L532.985 286.651V286.492L532.572 286.651H532.382C530.456 283.435 529.493 281.52 529.493 280.906H529.303V282.017H528.922C528.16 280.959 526.88 278.473 525.082 274.559L524.701 274.4C523.812 276.897 521.178 280.451 516.798 285.064C516.163 285.064 515.137 286.915 513.72 290.618C513.169 290.618 512.789 290.883 512.577 291.412H512.387L511.974 291.253L510.831 291.412C508.779 290.671 507.753 289.56 507.753 288.079C507.753 287.127 508.335 285.529 509.498 283.287C508.589 275.5 508.134 269.988 508.134 266.751V265.958C508.684 249.538 509.583 241.329 510.831 241.329L511.022 241.011L510.831 240.218C511.381 240.133 511.836 239.699 512.196 238.917C513.169 238.599 513.868 238.44 514.291 238.44L514.672 238.599C514.904 238.493 515.169 238.44 515.465 238.44L516.798 239.266C516.798 239.477 517.116 240.006 517.75 240.853C518.152 242.651 518.353 244.502 518.353 246.407V252.913C518.353 255.579 518.29 259.345 518.163 264.212V264.371H518.353C519.242 262.149 520.586 259.821 522.384 257.388C521.876 254.701 521.622 252.892 521.622 251.961L523.336 250.533C523.463 250.533 523.527 250.586 523.527 250.691C524.056 250.48 524.511 250.374 524.891 250.374C525.949 250.776 526.722 251.199 527.208 251.644H528.16V251.802H528.351V251.485H528.732C528.732 251.887 529.504 252.68 531.049 253.865C532.72 255.685 534.582 260.837 536.635 269.322H537.015C538.221 265.344 540.729 259.504 544.537 251.802C545.68 247.994 547.986 241.318 551.456 231.775ZM532.985 279.795V280.271C533.112 281.372 533.175 282.007 533.175 282.176H533.366L533.556 280.748C533.302 280.324 533.175 280.007 533.175 279.795H532.985ZM566.762 239.012C567.968 239.033 569.216 239.361 570.507 239.996C575.945 239.509 580.536 239.223 584.281 239.139C590.1 239.371 594.914 239.488 598.722 239.488L598.754 239.742L596.723 239.869V239.996H599.04C598.68 240.376 597.241 240.821 594.723 241.329C593.284 241.836 591.56 242.249 589.55 242.566L589.582 242.693L596.501 243.042L596.564 243.296H594.882C594.649 243.318 594.533 243.392 594.533 243.519V243.55H596.596L596.659 243.804C594.797 244.375 589.211 245.232 579.901 246.375C577.299 246.438 575.088 246.47 573.268 246.47L572.856 246.597C572.602 246.513 572.316 246.47 571.999 246.47H570.126C569.851 246.618 569.438 247.317 568.888 248.565C568.909 248.671 569.407 249.083 570.38 249.803C570.126 249.887 569.925 249.93 569.777 249.93L569.809 250.025L570.539 250.533C568.825 255.611 567.968 258.298 567.968 258.594V258.626L571.046 258.372L571.078 258.499C571.734 258.33 572.961 258.245 574.76 258.245H575.807C576.611 258.245 580.155 258.615 586.44 259.356H586.63L586.693 259.61C586.588 259.61 586.175 259.642 585.456 259.705L585.487 259.832H586.947L586.979 260.086C583.975 260.7 582.007 261.271 581.076 261.8C579.489 262.054 577.754 262.382 575.871 262.784L575.902 262.911H576.315L576.347 263.038C572.03 265.069 568.55 266.084 565.905 266.084C564.91 271.543 563.376 276.368 561.303 280.557L561.335 280.779C563.535 280.547 565.598 280.43 567.524 280.43C575.077 280.578 579.531 280.652 580.885 280.652H582.758L582.821 280.906C582.631 280.906 581.943 280.949 580.758 281.033L580.79 281.16H582.441L582.472 281.287V281.319C582.472 281.446 582.282 281.509 581.901 281.509V281.636L583.202 281.763L583.234 282.017H583.012C582.843 282.017 582.165 282.059 580.981 282.144V282.271C583.033 282.271 584.99 282.313 586.852 282.398L586.884 282.62C585.699 282.705 585.022 282.747 584.853 282.747V282.874H586.947L586.979 283.128C585.096 283.593 581.488 284.239 576.156 285.064C575.881 285.297 572.76 286.037 566.794 287.286C565.249 288.026 560.266 288.799 551.845 289.603C550.681 289.603 550.099 289.793 550.099 290.174V290.237C549.972 290.555 549.803 290.713 549.591 290.713H549.369L549.242 290.11H549.052L548.957 290.713H548.544C547.994 290.036 547.698 289.592 547.655 289.38L547.465 288.523L546.989 288.143L546.957 288.016L547.116 287.762C546.058 287.762 545.074 287.36 544.164 286.556C543.974 286.556 543.741 286.429 543.466 286.175L543.434 285.921V285.794C543.434 285.35 543.984 284.704 545.085 283.858C545.698 282.99 546.555 282.419 547.655 282.144C549.073 277.32 550.417 271.85 551.686 265.735C554.204 258.859 557.018 252.077 560.129 245.391H559.938C559.071 245.222 558.616 245.053 558.573 244.883L558.669 244.28C558.118 244.28 557.812 244.153 557.748 243.899V243.772C557.748 243.434 557.939 243.032 558.319 242.566C558.15 242.418 558.055 242.26 558.034 242.09H558.637L558.383 241.836L558.351 241.583C559.346 240.609 561.324 240.123 564.286 240.123C564.667 239.467 565.302 239.139 566.191 239.139C566.191 239.223 566.265 239.266 566.413 239.266C566.413 239.096 566.529 239.012 566.762 239.012ZM557.018 279.922V279.986C557.018 280.24 556.817 280.631 556.415 281.16H557.05C557.304 281.16 557.431 281.086 557.431 280.938V280.906L557.209 279.922H557.018ZM599.079 232.029C599.671 232.114 600.412 232.241 601.301 232.41L603.173 232.791C603.364 232.833 603.544 232.854 603.713 232.854C603.84 232.854 603.956 232.844 604.062 232.823L604.475 233.013C604.623 232.992 604.75 232.981 604.855 232.981C604.961 232.981 605.056 232.992 605.141 233.013L605.078 233.14L609.013 233.489C623.592 236.24 634.785 240.525 642.592 246.343C643.142 247.592 643.417 248.607 643.417 249.39C643.417 249.602 643.396 249.803 643.354 249.993C642.635 252.659 640.191 254.553 636.022 255.674C634.626 257.409 629.484 259.377 620.598 261.578L632.658 276.907C636.572 281.245 639.365 287.085 641.037 294.427C641.016 294.575 640.952 294.649 640.847 294.649C640.17 294.649 637.567 290.766 633.039 283.001L641.672 300.362L637.641 297.251C637.81 297.527 637.895 297.738 637.895 297.886V297.981L637.26 297.854C636.329 297.41 630.817 292.12 620.725 281.985C616.979 277.394 612.906 271.766 608.505 265.101L608.283 265.069C605.511 275.119 602.211 283.868 598.381 291.316C597.683 292.671 596.402 295.665 594.54 300.298L594.128 300.203L594.985 297.061L594.794 296.998L594.16 298.521L593.81 299.727L593.62 299.664C592.499 299.452 591.652 297.326 591.081 293.284C591.102 291.422 591.642 289.729 592.7 288.206L593.779 286.175C593.758 284.948 593.705 284.334 593.62 284.334C593.578 284.334 593.535 284.408 593.493 284.556V284.397C593.303 284.397 591.917 287.994 589.335 295.188C590.309 291.147 590.795 288.904 590.795 288.46V288.365C590.774 288.365 590.742 288.407 590.7 288.492L589.653 286.333C592.932 277.362 594.604 272.728 594.667 272.432L594.858 271.797L594.636 271.734C593.535 275.31 592.192 279.129 590.605 283.191L589.113 285.984C588.648 286.535 588.32 286.81 588.129 286.81C587.981 286.81 587.907 286.672 587.907 286.397C587.907 285.064 589.568 280.441 592.89 272.527C593.885 268.93 594.953 263.958 596.096 257.61C596.773 255.198 597.386 253.516 597.936 252.564V252.5C597.936 252.458 597.884 252.426 597.778 252.405C599.661 248.745 601.28 244.481 602.634 239.615C600.031 238.832 597.175 236.906 594.064 233.838L599.079 232.029ZM618.122 243.519V243.582C619.222 243.772 619.804 243.878 619.868 243.899L619.836 244.058C619.772 244.037 618.958 244.005 617.392 243.963L615.139 243.741L614.821 243.772V244.153C614.821 244.386 614.811 244.576 614.789 244.725L612.917 250.564C612.832 250.564 612.79 250.575 612.79 250.596L612.949 250.628C618.894 250.141 622.428 249.602 623.549 249.009C627.421 248.078 629.4 247.348 629.484 246.819L629.548 246.597C626.712 245.391 623.02 244.375 618.471 243.55L618.122 243.519ZM661.357 239.012C662.563 239.033 663.812 239.361 665.102 239.996C670.54 239.509 675.132 239.223 678.877 239.139C684.695 239.371 689.509 239.488 693.318 239.488L693.349 239.742L691.318 239.869V239.996H693.635C693.275 240.376 691.836 240.821 689.319 241.329C687.88 241.836 686.155 242.249 684.145 242.566L684.177 242.693L691.096 243.042L691.159 243.296H689.477C689.244 243.318 689.128 243.392 689.128 243.519V243.55H691.191L691.255 243.804C689.393 244.375 683.807 245.232 674.497 246.375C671.894 246.438 669.683 246.47 667.863 246.47L667.451 246.597C667.197 246.513 666.911 246.47 666.594 246.47H664.721C664.446 246.618 664.034 247.317 663.484 248.565C663.505 248.671 664.002 249.083 664.975 249.803C664.721 249.887 664.52 249.93 664.372 249.93L664.404 250.025L665.134 250.533C663.42 255.611 662.563 258.298 662.563 258.594V258.626L665.642 258.372L665.674 258.499C666.329 258.33 667.557 258.245 669.355 258.245H670.403C671.207 258.245 674.751 258.615 681.035 259.356H681.225L681.289 259.61C681.183 259.61 680.77 259.642 680.051 259.705L680.083 259.832H681.543L681.574 260.086C678.57 260.7 676.602 261.271 675.671 261.8C674.084 262.054 672.349 262.382 670.466 262.784L670.498 262.911H670.91L670.942 263.038C666.626 265.069 663.145 266.084 660.5 266.084C659.506 271.543 657.972 276.368 655.898 280.557L655.93 280.779C658.13 280.547 660.193 280.43 662.119 280.43C669.673 280.578 674.126 280.652 675.481 280.652H677.353L677.417 280.906C677.226 280.906 676.539 280.949 675.354 281.033L675.385 281.16H677.036L677.068 281.287V281.319C677.068 281.446 676.877 281.509 676.496 281.509V281.636L677.798 281.763L677.829 282.017H677.607C677.438 282.017 676.761 282.059 675.576 282.144V282.271C677.628 282.271 679.585 282.313 681.447 282.398L681.479 282.62C680.294 282.705 679.617 282.747 679.448 282.747V282.874H681.543L681.574 283.128C679.691 283.593 676.084 284.239 670.752 285.064C670.477 285.297 667.356 286.037 661.389 287.286C659.844 288.026 654.861 288.799 646.44 289.603C645.276 289.603 644.695 289.793 644.695 290.174V290.237C644.568 290.555 644.398 290.713 644.187 290.713H643.965L643.838 290.11H643.647L643.552 290.713H643.139C642.589 290.036 642.293 289.592 642.251 289.38L642.06 288.523L641.584 288.143L641.552 288.016L641.711 287.762C640.653 287.762 639.669 287.36 638.759 286.556C638.569 286.556 638.336 286.429 638.061 286.175L638.029 285.921V285.794C638.029 285.35 638.58 284.704 639.68 283.858C640.293 282.99 641.15 282.419 642.251 282.144C643.668 277.32 645.012 271.85 646.281 265.735C648.799 258.859 651.613 252.077 654.724 245.391H654.533C653.666 245.222 653.211 245.053 653.169 244.883L653.264 244.28C652.714 244.28 652.407 244.153 652.343 243.899V243.772C652.343 243.434 652.534 243.032 652.915 242.566C652.745 242.418 652.65 242.26 652.629 242.09H653.232L652.978 241.836L652.946 241.583C653.941 240.609 655.919 240.123 658.882 240.123C659.262 239.467 659.897 239.139 660.786 239.139C660.786 239.223 660.86 239.266 661.008 239.266C661.008 239.096 661.124 239.012 661.357 239.012ZM651.613 279.922V279.986C651.613 280.24 651.412 280.631 651.01 281.16H651.645C651.899 281.16 652.026 281.086 652.026 280.938V280.906L651.804 279.922H651.613ZM733.704 239.52C733.81 239.52 733.863 239.572 733.863 239.678C733.99 239.678 734.159 239.625 734.37 239.52C736.592 239.52 743.098 240.292 753.889 241.836V242.154H751.414V242.344C752.958 242.408 753.731 242.566 753.731 242.82C752.102 243.497 750.229 243.836 748.113 243.836V243.995C748.536 243.995 748.748 244.1 748.748 244.312C748.684 244.418 748.198 244.471 747.288 244.471C747.309 244.703 747.415 244.82 747.605 244.82H748.938V245.137C747.33 245.814 740.369 247.359 728.055 249.771C728.055 250.046 727.399 252.088 726.087 255.896C728.753 255.473 730.9 255.262 732.53 255.262C736.063 255.812 739.269 256.087 742.146 256.087V256.404L740.496 256.753V256.912H741.162L742.305 256.753V257.071C741.205 257.579 738.168 258.679 733.196 260.372V260.562L738.338 261.038V261.387H737.354V261.546H738.496V261.863C737.354 262.54 736.582 262.879 736.18 262.879L736.338 263.196V263.355C734.138 263.905 730.551 265.016 725.579 266.688C723.273 267.068 722.119 267.449 722.119 267.83C719.728 275.024 716.798 282.091 713.328 289.031L709.678 297.315H709.361C709.911 295.643 710.186 294.702 710.186 294.49V294.332H710.027L709.012 297.125H708.694C708.8 296.384 708.906 295.887 709.012 295.633C708.906 295.442 708.853 295.231 708.853 294.998C708.853 294.681 709.075 293.57 709.519 291.666V291.507H709.361L704.886 301.441H704.568L705.393 298.807V298.616H705.235C704.663 299.949 704.378 300.722 704.378 300.933H704.06V300.108C704.06 300.002 704.113 299.949 704.219 299.949L704.06 299.632V299.283C704.06 298.838 704.505 296.691 705.393 292.84C705.288 292.226 705.235 291.782 705.235 291.507C706.991 279.214 709.138 268.951 711.678 260.721C712.333 258.986 713.275 255.896 714.502 251.453H712.82C710.852 251.326 709.868 250.988 709.868 250.438V250.279L710.027 249.961C709.667 249.961 709.329 249.464 709.012 248.47C709.223 248.343 709.445 248.279 709.678 248.279L709.519 247.454C710.895 246.354 711.72 245.804 711.995 245.804L711.836 245.486V244.82C711.836 244.714 711.889 244.661 711.995 244.661L711.836 244.312V243.995C712.365 243.042 713.085 242.323 713.994 241.836C715.031 241.286 719.221 240.62 726.563 239.837V240.027C726.69 240.027 726.753 239.964 726.753 239.837L733.704 239.52ZM705.266 292.427V292.745H705.393V292.427H705.266ZM768.243 239.773H770.052C772.951 239.773 775.627 241.762 778.082 245.74C778.653 246.206 779.372 247.771 780.24 250.438C781.107 251.115 781.922 253.019 782.684 256.15H782.842L782.684 256.404C782.684 256.489 782.737 256.531 782.842 256.531L782.684 256.785V258.309C782.684 259.684 782.578 261.377 782.366 263.387L783.35 266.688C783.35 269.84 781.16 274.284 776.78 280.018L773.004 283.191L772.686 283.064C768.052 285.604 765.09 286.873 763.799 286.873V286.619L764.625 286.492V286.365H764.466C762.583 286.788 760.774 287 759.039 287C753.516 287 748.925 283.911 745.264 277.732H745.106V278.875H744.756C744.756 278.663 744.651 278.071 744.439 277.098H744.28V278.621H743.963C742.969 277.203 742.471 274.114 742.471 269.354V268.973C742.471 263.937 744.111 257.97 747.391 251.072C750.311 246.438 754.035 243.476 758.563 242.186C763.62 240.577 766.846 239.773 768.243 239.773ZM752.85 271.67H752.532V271.543C752.448 270.866 752.405 270.443 752.405 270.274H752.247V271.67C752.247 271.945 752.596 272.559 753.294 273.511C753.294 274.273 754.384 275.352 756.563 276.749C757.558 276.897 758.457 276.971 759.261 276.971H759.388C763.747 276.971 767.629 275.352 771.036 272.115C773.025 269.978 774.019 266.751 774.019 262.435V260.816C774.019 260.562 774.072 260.372 774.178 260.245L774.019 259.546V256.785C773.215 254.606 772.02 253.146 770.433 252.405C768.677 251.707 767.238 251.358 766.116 251.358C764.318 251.358 761.387 252.469 757.325 254.69C756.034 255.262 755.389 256.531 755.389 258.499C753.696 265.735 752.85 270.126 752.85 271.67ZM783.033 256.531H783.35V256.785H783.033V256.531ZM744.28 276.717V276.971H744.439V276.717H744.28ZM818.968 238.536H819.349C819.518 238.536 819.74 238.737 820.016 239.139L820.365 238.98C820.915 238.98 821.444 239.879 821.952 241.678C817.254 256.32 814.747 265.979 814.43 270.655C813.372 276.241 812.324 280.102 811.287 282.239C810.907 282.832 810.251 284.683 809.32 287.793H808.971L809.066 286.429H808.875L808.653 287.19L808.59 287.793H808.241L807.796 286.429H807.638C807.172 287.825 806.897 289.179 806.812 290.491H806.463C806.4 290.026 806.368 289.603 806.368 289.222C806.368 289.031 806.379 288.851 806.4 288.682H806.209C806.209 288.894 806.146 289 806.019 289C806.019 289.084 806.072 289.126 806.178 289.126L805.955 289.888C806.061 290.079 806.114 290.227 806.114 290.333H805.765C805.088 289.55 804.749 287.931 804.749 285.477C804.749 284.715 804.781 283.879 804.845 282.969H804.654L804.622 283.572H804.273L804.337 282.398H804.178L803.892 283.89H803.543C803.247 282.959 803.088 281.858 803.067 280.589C798.962 284.397 795.503 286.302 792.689 286.302H792.498C787.293 286.302 784.479 282.44 784.056 274.717L784.215 272.464V272.369C784.215 272.178 784.172 272.009 784.088 271.861L784.278 271.575L784.151 270.813C784.299 270.623 784.373 270.475 784.373 270.369C784.373 270.263 784.321 270.21 784.215 270.21L784.754 267.227L784.596 266.91C786.056 259.885 787.685 253.685 789.483 248.311C790.837 244.502 791.8 242.598 792.371 242.598H792.721C792.826 242.598 792.879 242.64 792.879 242.725C793.578 242.598 794.128 242.45 794.53 242.281C794.741 242.387 794.911 242.439 795.037 242.439L795.958 241.995C795.979 242.186 796.095 242.281 796.307 242.281C796.54 242.196 796.72 242.154 796.847 242.154C796.847 242.429 797.598 242.725 799.1 243.042L799.036 243.804C799.227 243.804 799.449 244.005 799.703 244.407L799.671 244.979L799.481 245.296C799.692 245.317 799.798 245.402 799.798 245.55V245.582C799.629 245.582 799.439 245.74 799.227 246.058L799.195 246.502C797.143 255.643 796.053 261.144 795.926 263.006L795.767 264.974C795.746 265.799 795.736 266.571 795.736 267.291C795.736 271.395 796.244 273.776 797.259 274.432C801.364 271.554 803.438 269.798 803.48 269.163L803.512 268.877C803.998 264.667 804.379 262.562 804.654 262.562V262.53C804.654 262.445 804.601 262.403 804.495 262.403C805.342 259.271 805.818 257.621 805.924 257.452C805.924 257.346 805.86 257.293 805.733 257.293C808.505 247.094 810.399 241.339 811.414 240.027H812.113L812.62 240.345H812.97C813.012 239.837 813.266 239.583 813.731 239.583C814.303 239.583 814.99 239.985 815.794 240.789C815.837 240.26 816.239 239.604 817 238.821H817.191L817.857 239.297H818.397C818.46 238.79 818.651 238.536 818.968 238.536ZM790.88 276.526L790.848 276.971L790.975 277.732H791.165C791.187 277.436 791.25 277.288 791.356 277.288C791.165 276.971 791.07 276.738 791.07 276.59V276.526H790.88ZM791.737 279.668L791.705 279.827C791.726 280.039 791.842 280.145 792.054 280.145L792.086 279.668H791.737ZM792.213 280.271V280.43C792.276 280.726 792.668 280.98 793.387 281.192L793.419 280.875L792.213 280.271ZM850.365 238.98H850.746L850.524 240.25H850.714L851 239.615L851.063 239.234H851.444C851.55 239.234 851.603 239.562 851.603 240.218C851.603 241.995 851.211 246.153 850.428 252.691C849.794 256.203 848.577 262.424 846.779 271.353H846.588L846.715 271.607C846.715 271.692 846.652 271.734 846.525 271.734V271.766C846.525 271.829 846.577 271.861 846.683 271.861C846.345 273.13 846.123 274.061 846.017 274.654L845.922 275.162C845.879 275.352 845.784 275.521 845.636 275.669V275.701C845.636 275.765 845.689 275.796 845.795 275.796C845.477 276.939 845.266 277.785 845.16 278.335L844.493 282.144L844.176 282.906L844.335 283.16C844.229 283.794 843.605 285.191 842.462 287.349L843.065 290.396C842.663 290.206 842.356 289.782 842.145 289.126H841.954L841.923 289.38C842.176 289.761 842.303 290.089 842.303 290.364C842.303 290.428 842.293 290.481 842.272 290.523C841.489 289.888 840.928 289.507 840.59 289.38H840.24L838.622 289.888C836.273 289.888 834.866 288.619 834.401 286.08C834.379 285.72 834.369 285.381 834.369 285.064C834.369 284.45 834.411 283.9 834.496 283.414L834.94 280.748L829.545 268.56H829.354C829.291 268.941 829.185 269.195 829.037 269.322V269.354C829.037 269.417 829.09 269.449 829.195 269.449C829.174 269.618 829.1 269.703 828.973 269.703C828.466 271.84 828.106 273.532 827.894 274.781L827.101 279.224C827.058 279.52 826.931 279.901 826.72 280.367V280.398C826.72 280.462 826.773 280.494 826.879 280.494L826.593 281.128L826.529 281.509C825.916 284.979 825.048 286.714 823.927 286.714C823.821 286.714 823.43 286.757 822.753 286.841L822.626 286.587L822.213 286.714C822.128 286.714 821.737 286.418 821.039 285.826L820.817 286.08L821.293 286.587C820.954 286.63 820.362 287.18 819.515 288.238L818.087 288.746H816.595C814.585 288.28 813.58 287.286 813.58 285.762C813.58 285.551 813.601 285.318 813.644 285.064L814.247 281.636C814.268 281.552 814.342 281.509 814.469 281.509C814.469 281.425 814.405 281.382 814.279 281.382C820.986 261.747 825.027 250.194 826.403 246.724C826.508 246.724 826.593 246.597 826.656 246.343C826.381 245.857 826.244 244.936 826.244 243.582V243.296C826.519 243.296 826.879 243.042 827.323 242.535C827.81 242.535 828.063 242.492 828.085 242.408L828.021 241.773C828.423 241.773 828.825 241.223 829.227 240.123H829.608L829.545 240.503H829.925L829.957 240.25H830.148L832.02 241.519L832.115 240.884H832.496C832.517 241.117 832.528 241.329 832.528 241.519C832.528 241.709 832.517 241.879 832.496 242.027H832.687C832.814 241.265 833.004 240.884 833.258 240.884C833.787 241.307 834.073 243.635 834.115 247.867C836.739 258.023 838.156 263.905 838.368 265.513H838.558L838.844 264.878L840.621 258.023H840.812V257.991C840.812 257.928 840.759 257.896 840.653 257.896C841.605 255.336 842.674 251.696 843.859 246.978H844.239C844.303 246.661 844.62 245.603 845.192 243.804H845.572L845.477 244.312L845.445 245.582H845.636L845.858 244.312C845.922 244.143 846.059 244.058 846.271 244.058H846.461C846.609 244.778 846.683 245.497 846.683 246.216C846.683 246.766 846.641 247.317 846.556 247.867H846.747C847.36 246.513 848.566 243.55 850.365 238.98ZM861.925 240.186H862.433L862.687 240.281L862.941 240.186H864.528C864.528 240.461 864.422 240.599 864.21 240.599C864.634 240.599 865.089 240.905 865.575 241.519V241.9C865.575 242.365 865.639 242.598 865.766 242.598V242.566C865.787 242.566 865.871 242.64 866.02 242.789C866.02 243.402 866.221 243.709 866.623 243.709C866.517 243.603 866.432 243.55 866.369 243.55C866.242 243.55 866.178 243.762 866.178 244.185C866.072 244.185 866.02 243.815 866.02 243.074C866.125 243.074 866.178 243.085 866.178 243.106C868.485 242.958 869.987 242.884 870.685 242.884C874.832 243.349 878.641 243.646 882.111 243.772C882.513 243.709 883.899 243.582 886.269 243.392V243.265L885.602 243.455H885.919C886.533 243.455 886.84 243.487 886.84 243.55C885.888 243.55 885.412 243.519 885.412 243.455C886.66 243.455 888.48 243.677 890.871 244.122L893.283 243.011V244.375L893.568 244.058H891.442C891.569 244.058 892.288 243.794 893.6 243.265V244.534L893.537 244.756C893.875 244.841 894.044 245.074 894.044 245.455V246.185H893.441V245.042H894.044V245.772C894.044 246.174 893.293 246.576 891.791 246.978V246.502C892.193 246.608 892.394 247.063 892.394 247.867H891.791V246.819L892.711 246.915V247.549C892.711 248.121 892.108 248.417 890.902 248.438V247.359H891.505V248.755C890.363 248.755 889.072 249.718 887.633 251.644C884.608 258.52 881.042 263.651 876.938 267.037C871.394 271.417 866.326 275.458 861.735 279.161C857.016 280.896 854.657 282.165 854.657 282.969C854.128 283.943 853.515 284.704 852.816 285.254H851.356L851.706 284.08V284.556H853.007C852.901 284.958 852.531 285.159 851.896 285.159H851.071L850.944 284.461H851.547C851.187 284.503 849.928 285.561 847.77 287.635H846.469V286.873L846.405 287.032C847.23 287.032 847.643 287.18 847.643 287.476V287.54H845.866V286.429C845.866 286.069 846.014 285.381 846.31 284.366C846.31 284.027 846.173 283.858 845.897 283.858C847.294 275.775 848.944 269.216 850.849 264.18C853.938 256.669 855.609 252.426 855.863 251.453C855.8 251.453 855.768 251.178 855.768 250.628V250.438C855.768 249.972 855.62 249.739 855.324 249.739L855.609 250.088C855.609 249.644 856.17 248.819 857.292 247.613C858.73 242.852 859.862 240.472 860.688 240.472C860.688 240.493 860.709 240.503 860.751 240.503C860.899 240.503 861.291 240.398 861.925 240.186ZM874.24 251.263C873.605 251.263 873.288 251.273 873.288 251.294L873.542 251.263C872.928 251.263 870.516 251.294 866.305 251.358C866.03 251.358 865.893 251.411 865.893 251.517C863.565 257.039 861.788 262.16 860.561 266.878C867.056 263.768 872.949 258.213 878.239 250.215V251.009L874.24 251.263Z" fill="white"/>
<rect width="1016" height="527" rx="5" fill="black" fill-opacity="0.52"/>
</svg>
